<?xml version="1.0" encoding="utf-8"?>
<!-- Generator: Adobe Illustrator 25.2.1, SVG Export Plug-In . SVG Version: 6.00 Build 0)  -->
<svg version="1.1" id="Layer_1" xmlns="http://www.w3.org/2000/svg" xmlns:xlink="http://www.w3.org/1999/xlink" x="0px" y="0px"
	 viewBox="0 0 600 600" style="enable-background:new 0 0 600 600;" xml:space="preserve">
<style type="text/css">
	.st0{fill:#FFFFFF;}
	.st1{opacity:0.4;fill:url(#SVGID_1_);}
	.st2{fill:url(#SVGID_2_);}
	.st3{fill:#010101;}
</style>
<g>
	<rect x="-49.65" y="-50.48" class="st0" width="700" height="700"/>
	
		<radialGradient id="SVGID_1_" cx="174.6516" cy="181.3195" r="377.2311" gradientTransform="matrix(0.7 0 0 0.7 177.3916 177.5)" gradientUnits="userSpaceOnUse">
		<stop  offset="0.9187" style="stop-color:#010101"/>
		<stop  offset="0.9233" style="stop-color:#262525"/>
		<stop  offset="0.9301" style="stop-color:#4A4747"/>
		<stop  offset="0.9373" style="stop-color:#6E6B6A"/>
		<stop  offset="0.9448" style="stop-color:#928F8F"/>
		<stop  offset="0.9529" style="stop-color:#B3B1B1"/>
		<stop  offset="0.9615" style="stop-color:#D0CECE"/>
		<stop  offset="0.9712" style="stop-color:#E6E5E5"/>
		<stop  offset="0.9826" style="stop-color:#F7F6F6"/>
		<stop  offset="1" style="stop-color:#FFFFFF"/>
	</radialGradient>
	<circle class="st1" cx="299.65" cy="304.42" r="264.06"/>
	<circle class="st0" cx="300.35" cy="299.52" r="245.62"/>
	<linearGradient id="SVGID_2_" gradientUnits="userSpaceOnUse" x1="135.1651" y1="134.341" x2="465.5298" y2="464.7058">
		<stop  offset="0" style="stop-color:#46A8DE"/>
		<stop  offset="1" style="stop-color:#CB4C9B"/>
	</linearGradient>
	<path class="st2" d="M135.17,464.71c-91.29-91.29-91.3-239.06,0-330.36c91.29-91.29,239.06-91.3,330.36,0
		c91.29,91.29,91.3,239.06,0,330.36C374.24,556,226.47,556.01,135.17,464.71z M300.35,73.62c-124.56,0-225.9,101.34-225.9,225.9
		c0,124.56,101.34,225.9,225.9,225.9c124.56,0,225.9-101.34,225.9-225.9C526.25,174.96,424.91,73.62,300.35,73.62z"/>
</g>
<g>
	<g>
		<path class="st3" d="M273.28,275.11c-8.82,0-17.06-5-21.17-12.94c-5.88-11.47-1.18-25.88,10.59-31.76
			c3.23-1.76,7.06-2.65,10.59-2.65c8.82,0,17.06,5,21.17,12.94c5.88,11.47,1.18,25.88-10.29,31.76
			C280.63,274.23,277.1,275.11,273.28,275.11L273.28,275.11z M245.63,323.34c-0.59,0-0.88,0-1.47,0
			c-12.94-0.88-22.94-12.06-22.06-25c0.59-12.94,11.76-22.94,25-22.06c12.94,0.59,22.94,11.76,22.06,25
			C268.57,313.35,258.28,323.34,245.63,323.34L245.63,323.34z M273.57,371.28c-4.71,0-9.12-1.47-12.94-3.82
			c-5.29-3.53-8.82-8.82-10-15c-1.18-6.18,0-12.35,3.24-17.65c4.41-6.76,11.76-10.59,19.7-10.59c4.71,0,9.12,1.47,12.94,3.82
			c5.29,3.53,8.82,8.82,10.29,15c1.18,6.18,0,12.35-3.23,17.65C288.86,367.16,281.51,371.28,273.57,371.28L273.57,371.28z
			 M329.15,371.28c-8.82,0-17.06-5-21.17-12.94c-2.94-5.59-3.23-12.06-1.47-17.94c2.06-5.88,6.18-10.88,11.76-13.53
			c3.24-1.76,7.06-2.65,10.59-2.65c8.82,0,17.06,5,21.17,12.94c5.88,11.47,1.18,25.88-10.59,31.76
			C336.51,370.4,332.68,371.28,329.15,371.28L329.15,371.28z M356.8,323.05c-0.59,0-0.88,0-1.47,0c-12.94-0.59-22.94-11.76-22.06-25
			c0.88-12.94,11.76-22.94,25-22.35c6.18,0.29,12.06,3.23,16.17,7.94c4.12,4.71,6.18,10.88,5.88,17.06
			C379.74,313.35,369.15,323.05,356.8,323.05L356.8,323.05z M328.86,274.82c-4.71,0-9.12-1.47-12.94-3.82
			c-10.88-7.06-13.82-21.76-6.76-32.64c4.41-6.76,11.76-10.59,19.7-10.59c4.71,0,9.12,1.47,12.94,3.82
			c10.88,7.06,13.82,21.76,6.76,32.64C344.15,271,336.8,274.82,328.86,274.82L328.86,274.82z M249.75,187.48
			c2.94,5.88,0.59,12.94-5.29,15.88c-5.88,2.94-12.94,0.59-15.88-5.29c-2.94-5.88-0.59-12.94,5.29-15.88
			C239.75,179.24,246.81,181.59,249.75,187.48L249.75,187.48z M178.29,288.05c6.47,0.29,11.47,5.88,11.18,12.35
			c-0.29,6.47-5.88,11.47-12.35,11.18c-6.47-0.29-11.47-5.88-11.18-12.35C166.23,292.76,171.82,287.76,178.29,288.05L178.29,288.05z
			 M229.75,400.1c3.53-5.29,10.88-7.06,16.17-3.23c5.59,3.53,7.06,10.88,3.53,16.17c-3.53,5.29-10.88,7.06-16.17,3.53
			C227.69,412.75,226.22,405.69,229.75,400.1L229.75,400.1z M352.68,411.57c-2.94-5.88-0.59-12.94,5.29-15.88
			c5.88-2.94,12.94-0.59,15.88,5.29c2.94,5.88,0.59,12.94-5.29,15.88C362.68,419.8,355.62,417.45,352.68,411.57L352.68,411.57z
			 M424.14,310.99c-6.47-0.29-11.47-5.88-11.18-12.35c0.29-6.47,5.88-11.47,12.35-11.18c6.47,0.29,11.47,5.88,11.18,12.35
			C436.2,306.29,430.61,311.29,424.14,310.99L424.14,310.99z M372.68,198.95c-3.53,5.59-10.88,7.06-16.17,3.53
			c-5.59-3.53-7.06-10.88-3.53-16.17c3.53-5.59,10.88-7.06,16.17-3.53C374.74,186.3,376.21,193.36,372.68,198.95L372.68,198.95z
			 M223.87,151.3c1.76,3.82,0.29,8.23-3.24,10.29c-3.82,1.76-8.23,0.29-10.29-3.24c-1.76-3.82-0.29-8.23,3.24-10.29
			C217.4,146.01,222.11,147.48,223.87,151.3L223.87,151.3z M134.17,292.17c4.12,0.29,7.35,3.82,7.06,7.94
			c-0.29,4.12-3.82,7.35-7.94,7.06c-4.12-0.29-7.35-3.82-7.06-7.94C126.53,295.11,130.06,292.17,134.17,292.17L134.17,292.17z
			 M211.52,440.39c2.35-3.53,7.06-4.41,10.59-2.06c3.53,2.35,4.41,7.06,2.06,10.59c-2.35,3.53-7.06,4.41-10.59,2.06
			C210.05,448.63,209.17,443.92,211.52,440.39L211.52,440.39z M378.56,447.74c-1.76-3.82-0.29-8.23,3.23-10.29
			c3.82-1.76,8.23-0.29,10.29,3.24c1.76,3.82,0.29,8.23-3.23,10.29C385.03,453.04,380.32,451.57,378.56,447.74L378.56,447.74z
			 M468.26,306.88c-4.12-0.29-7.35-3.82-7.06-7.94c0.29-4.12,3.82-7.35,7.94-7.06c4.12,0.29,7.35,3.82,7.06,7.94
			C475.9,303.64,472.37,306.88,468.26,306.88L468.26,306.88z M390.91,158.66c-2.35,3.53-7.06,4.41-10.59,2.06
			c-3.53-2.35-4.41-7.06-2.06-10.59c2.35-3.53,7.06-4.41,10.59-2.06C392.38,150.42,393.26,155.13,390.91,158.66L390.91,158.66z
			 M226.22,240.71c6.47,4.12,8.23,12.65,4.12,19.12c-4.12,6.47-12.65,8.23-19.12,4.12c-6.47-4.12-8.23-12.65-4.12-19.12
			C211.22,238.06,220.05,236.29,226.22,240.71L226.22,240.71z M212.69,334.81c6.76-3.53,15.29-0.59,18.53,6.18
			c3.53,6.76,0.59,15.29-6.18,18.53c-6.76,3.53-15.29,0.59-18.53-6.18C202.99,346.58,205.93,338.34,212.69,334.81L212.69,334.81z
			 M286.51,393.93c0.29-7.65,7.06-13.53,14.7-12.94c7.65,0.29,13.53,7.06,12.94,14.7c-0.29,7.65-7.06,13.53-14.7,12.94
			C292.1,408.04,286.22,401.57,286.51,393.93L286.51,393.93z M376.21,358.64c-6.47-4.12-8.23-12.65-4.12-19.12
			c4.12-6.47,12.65-8.23,19.12-4.12c6.47,4.12,8.23,12.65,4.12,19.12C391.21,360.99,382.38,362.75,376.21,358.64L376.21,358.64z
			 M389.73,264.23c-6.76,3.53-15.29,0.59-18.53-6.18c-3.53-6.76-0.59-15.29,6.18-18.53c6.76-3.53,15.29-0.59,18.53,6.18
			C399.44,252.47,396.5,260.7,389.73,264.23L389.73,264.23z M314.74,205.12c-0.29,7.65-7.06,13.53-14.7,12.94
			c-7.65-0.29-13.53-7.06-12.94-14.7c0.29-7.65,7.06-13.53,14.7-12.94C309.45,191.01,315.33,197.48,314.74,205.12L314.74,205.12z
			 M174.76,215.71c4.41,2.94,5.59,8.82,2.65,13.53c-2.94,4.41-8.82,5.88-13.53,2.65c-4.41-2.94-5.59-8.82-2.65-13.53
			C164.17,213.94,170.35,212.77,174.76,215.71L174.76,215.71z M165.35,367.16c4.71-2.35,10.59-0.59,12.94,4.41
			c2.35,4.71,0.59,10.59-4.41,12.94c-4.71,2.35-10.59,0.59-12.94-4.41C158.58,375.4,160.64,369.52,165.35,367.16L165.35,367.16z
			 M290.92,450.98c0.29-5.29,5-9.41,10.29-9.12c5.29,0.29,9.41,5,9.12,10.29c-0.29,5.29-5,9.41-10.29,9.12
			C294.74,460.98,290.63,456.27,290.92,450.98L290.92,450.98z M427.67,383.34c-4.41-2.94-5.59-8.82-2.65-13.53
			c2.94-4.41,8.82-5.88,13.53-2.94c4.41,2.94,5.59,8.82,2.65,13.53C438.26,385.1,432.08,386.28,427.67,383.34L427.67,383.34z
			 M437.08,231.88c-4.71,2.35-10.59,0.59-12.94-4.41c-2.35-4.71-0.59-10.59,4.41-12.94c4.71-2.35,10.59-0.59,12.94,4.41
			C443.85,223.65,441.79,229.53,437.08,231.88L437.08,231.88z M310.63,148.07c-0.29,5.29-5,9.41-10.29,9.12
			c-5.29-0.29-9.41-5-9.12-10.29c0.29-5.29,5-9.41,10.29-9.12C306.8,138.07,310.92,142.78,310.63,148.07L310.63,148.07z"/>
	</g>
</g>
</svg>
